<?xml version="1.0" encoding="UTF-8"?>
<svg version="1.1" xmlns="http://www.w3.org/2000/svg" width="256" height="256">
<path d="M0 0 C0.99 0 1.98 0 3 0 C1.50603094 17.57086004 -3.36384214 31.78993486 -17.125 43.75 C-28.62653797 52.48560795 -41.76429237 56.88712715 -55.34277344 61.23217773 C-69.26190303 65.6063127 -69.26190303 65.6063127 -81 74 C-81.16687448 76.58354218 -81.16687448 76.58354218 -81 79 C-72.20024541 83.56790656 -63.32985369 87.78328365 -54.1875 91.625 C-25.07255177 103.96347386 -25.07255177 103.96347386 -19.671875 116.77734375 C-15.01061034 132.19745766 -16.37935098 147.44048549 -23.6875 161.8125 C-33.78174945 178.82131032 -49.5215994 187.84053562 -68.125 193.1875 C-86.86709872 197.69972099 -105.01354145 198.39097239 -124.25 198.1875 C-126.76040854 198.17241029 -129.27082597 198.15872955 -131.78125 198.14648438 C-137.85436464 198.11385496 -143.92713905 198.06400276 -150 198 C-145.42928544 188.82603653 -140.85229926 179.65711739 -136.125 170.5625 C-135.65320313 169.64146484 -135.18140625 168.72042969 -134.6953125 167.77148438 C-134.2415625 166.89943359 -133.7878125 166.02738281 -133.3203125 165.12890625 C-132.92086426 164.35619385 -132.52141602 163.58348145 -132.10986328 162.78735352 C-131 161 -131 161 -129 160 C-127.5355151 159.7589035 -126.06376552 159.56106948 -124.58984375 159.38671875 C-123.69112549 159.27553711 -122.79240723 159.16435547 -121.86645508 159.04980469 C-120.41662231 158.87046387 -120.41662231 158.87046387 -118.9375 158.6875 C-99.91233508 156.17773835 -80.61093459 152.04587026 -64 142 C-63.41223366 139.2553656 -63.41223366 139.2553656 -64 136 C-69.96791499 129.13689777 -78.93210034 125.85943014 -87 122 C-119.51124706 106.28348513 -119.51124706 106.28348513 -126.875 90.375 C-129.81448657 81.55654029 -128.98215734 71.02838074 -125.3828125 62.55859375 C-115.85409318 44.92777128 -98.08993598 38.67079834 -79.95776367 33.02050781 C-74.14447362 31.28935223 -68.27739533 29.81416997 -62.3828125 28.38671875 C-39.06742466 22.73911851 -17.40915639 17.40915639 0 0 Z " fill="#98AA82" transform="translate(205,32)"/>
<path d="M0 0 C1.27663256 3.82989769 0.28089159 5.23537238 -1 9 C-2.18638673 18.84076571 -0.53647119 26.01729685 5.43359375 33.890625 C14.59930138 44.03918906 28.40180861 49.22328902 40.62231445 54.61206055 C57.49197065 62.13894906 57.49197065 62.13894906 62 69 C62.75176318 72.72495269 62.7309187 76.44640225 61.09765625 79.91796875 C60 81.5625 60 81.5625 58 84 C55.3068096 82.86057329 53.54332739 81.601739 51.3125 79.65625 C48.00518121 76.8679336 44.51710966 75.03402286 40.625 73.1875 C39.20702951 72.49479522 37.78906082 71.80208678 36.37109375 71.109375 C34.91426453 70.4058315 33.45723367 69.70270539 32 69 C-0.53197617 53.23870242 -0.53197617 53.23870242 -7.875 37.375 C-10.88136425 28.35590726 -9.82730172 18.03011595 -6.22265625 9.38671875 C-4.45966124 5.94521732 -2.41487758 3.01859698 0 0 Z " fill="#94A885" transform="translate(86,85)"/>
<path d="M0 0 C3.48740301 5.23110452 2.45716543 10.60247902 1.3125 16.60546875 C-2.71981815 33.08756919 -10.91926324 45.47664056 -24.99609375 55.1875 C-37.98464863 63.02454742 -52.54902292 66.45102651 -67.375 68.75 C-68.19500488 68.87785889 -69.01500977 69.00571777 -69.85986328 69.13745117 C-75.28992283 69.91796044 -80.51477749 70.1099243 -86 70 C-83.78167596 67.55034399 -81.67764676 66.17692566 -78.703125 64.7578125 C-77.83840576 64.33830322 -76.97368652 63.91879395 -76.08276367 63.48657227 C-75.14795166 63.03725342 -74.21313965 62.58793457 -73.25 62.125 C-30.50958466 42.40366715 -30.50958466 42.40366715 -1.98046875 7.15234375 C-1.2495306 4.77929798 -0.58517875 2.41257905 0 0 Z " fill="#F3EFD9" transform="translate(186,160)"/>
<path d="M0 0 C2.41720968 4.83441936 -0.4263361 12.17954239 -1.96875 17.07421875 C-8.60443789 34.22388508 -20.61621983 44.5711935 -37.02020264 52.14190674 C-43.60318168 54.99513306 -50.51688141 57.04792414 -57.34277344 59.23217773 C-67.57064568 62.52620351 -76.39657804 66.43837607 -85 73 C-87.75065637 69.33245817 -88.60862902 66.41246949 -88.40625 61.91796875 C-87.67749971 58.47742653 -85.71755355 57.09478086 -83 55 C-82.47664063 54.59136719 -81.95328125 54.18273437 -81.4140625 53.76171875 C-73.09589985 47.89541627 -62.43121994 45.66100803 -52.75 42.9375 C-35.54699628 38.06363668 -17.40820741 31.40154031 -7.453125 15.62109375 C-4.65006873 10.56504333 -2.30842532 5.29628079 0 0 Z " fill="#95A886" transform="translate(207,34)"/>
<path d="M0 0 C-0.68707031 0.58007812 -1.37414062 1.16015625 -2.08203125 1.7578125 C-3.43361328 2.92957031 -3.43361328 2.92957031 -4.8125 4.125 C-5.70582031 4.89070313 -6.59914063 5.65640625 -7.51953125 6.4453125 C-12.04182527 11.10291925 -13.45336965 15.31858497 -13.5625 21.75 C-13.36836799 29.76005568 -11.00107857 35.06350145 -5.3059082 40.66674805 C-0.63394302 44.95039404 4.17209337 48.08373344 9.8125 50.9375 C11.0344104 51.57026855 11.0344104 51.57026855 12.28100586 52.21582031 C18.09843009 55.17555269 24.02506871 57.77566261 30.0625 60.25 C50.21681678 68.51310682 50.21681678 68.51310682 55 77 C55.87778108 81.38890538 55.17162537 84.17260117 53.0625 88 C49.66123927 92.98527644 44.59444827 97.90871811 38.72265625 99.69140625 C38.15417969 99.79324219 37.58570313 99.89507812 37 100 C37.43696905 95.1933405 38.38081956 93.16678288 42 90 C43.74340988 86.51318023 43.56906601 82.80480183 43 79 C36.18119974 69.62414964 22.75901384 65.57503652 12.52929688 61.08007812 C0.29427992 55.55480005 -14.12551157 47.78507417 -19.34375 34.58203125 C-21.37366539 26.59528082 -21.18125809 16.2830816 -17 9 C-6.13924051 -2.0464135 -6.13924051 -2.0464135 0 0 Z " fill="#F3EFDA" transform="translate(104,75)"/>
<path d="M0 0 C1 3 1 3 0.28515625 4.9453125 C-5.56473106 15.37418509 -12.58816011 22.15748658 -23 28 C-23.845625 28.50144531 -24.69125 29.00289062 -25.5625 29.51953125 C-34.88116948 34.65292621 -45.10217963 37.22526779 -55.26074219 40.19482422 C-71.00873927 44.09731628 -71.00873927 44.09731628 -83 54 C-83.4519137 59.60372982 -83.18654312 62.28391619 -80 67 C-79.3125 69.8125 -79.3125 69.8125 -79 72 C-83.96518748 70.39361581 -88.39501271 67.65671957 -91.14453125 63.10546875 C-92.66073827 59.37379943 -92.72175636 55.94292827 -92 52 C-88.59820102 44.87928519 -80.92306839 41.81175815 -74 39 C-68.71888668 37.14605435 -63.37111751 35.56580626 -58 34 C-24.22362315 24.39231323 -24.22362315 24.39231323 0 0 Z " fill="#F4EED9" transform="translate(203,40)"/>
<path d="M0 0 C0.33 0 0.66 0 1 0 C0.3019055 13.96189007 -6.58169529 26.47394656 -16.62890625 36.02734375 C-28.59016952 45.97864186 -43.59628982 52.10717121 -59 54 C-59 53.34 -59 52.68 -59 52 C-57.47802734 50.921875 -57.47802734 50.921875 -55.3359375 49.75 C-54.55033447 49.31163818 -53.76473145 48.87327637 -52.95532227 48.42163086 C-51.67806274 47.71792358 -51.67806274 47.71792358 -50.375 47 C-41.82426263 42.16517402 -33.77843298 36.99454106 -26 31 C-25.46262207 30.5889502 -24.92524414 30.17790039 -24.37158203 29.75439453 C-13.53440657 21.37709108 -6.1418427 12.2371563 0 0 Z " fill="#98AB89" transform="translate(186,173)"/>
<path d="M0 0 C-0.99 2.97 -1.98 5.94 -3 9 C-4 8 -5 7 -6 6 C-6.99 6.99 -7.98 7.98 -9 9 C-9.66 8.67 -10.32 8.34 -11 8 C-9.73861805 6.65772182 -8.46555441 5.32641323 -7.1875 4 C-6.47980469 3.2575 -5.77210938 2.515 -5.04296875 1.75 C-3 0 -3 0 0 0 Z " fill="#DACA9A" transform="translate(208,32)"/>
<path d="M0 0 C1.6415049 3.2830098 0.51888624 6.42545033 0 10 C-1.32 10.33 -2.64 10.66 -4 11 C-3.5247412 9.35303396 -3.04468109 7.70745272 -2.5625 6.0625 C-2.29566406 5.14597656 -2.02882812 4.22945312 -1.75390625 3.28515625 C-1 1 -1 1 0 0 Z " fill="#A0A98F" transform="translate(207,34)"/>
<path d="M0 0 C1.25541557 3.76624671 0.37061958 5.37188934 -1 9 C-1.99 9 -2.98 9 -4 9 C-4 5.00095031 -2.27413033 3.19799578 0 0 Z " fill="#9FAA93" transform="translate(86,85)"/>
</svg>
